# xmcd
#
# Track frame offsets: 
#        150
#        9981
#        16776
#        30728
#        58465
#        93844
#        113406
#        116814
#        125311
#        136285
#        152252
#        153682
#
# Disc length: 2364 seconds
#
# Revision: 0
# Processed by: cddbd v1.5.1PL2 Copyright (c) Steve Scherf et al.
# Submitted via: ExactAudioCopy v0.95a4
#
DISCID=8b093a0c
DTITLE=Various Artist - A Prairie Home Companion - 9-25-04
DYEAR=2004
DGENRE=Country
TTITLE0=Old Crow Medicine Show/Raise a Ruckus
TTITLE1=Pat Donahue/Instrumental
TTITLE2=Old Crow Medicine Show/Tell It to Me
TTITLE3=Gillian Welch/One Little Song
TTITLE4=Gillian Welch and David Rawlings/Revelator
TTITLE5=Old Crow Medicine Show/Wagon Wheel
TTITLE6=Garriaon Keillor/Intro
TTITLE7=Old Crow Medicine Show/Instrumental
TTITLE8=Pat Donahue/Wildwood Flower
TTITLE9=Gillian Welch and David Rawlings/I'll Fly Away
TTITLE10=Garrison Keillor/Intro2
TTITLE11=Old Crow Medicine Show, Gillian Welch and David Rawlings/We're 
TTITLE11=All in This Together
EXTD=
EXTT0=
EXTT1=
EXTT2=
EXTT3=
EXTT4=
EXTT5=
EXTT6=
EXTT7=
EXTT8=
EXTT9=
EXTT10=
EXTT11=
PLAYORDER=
